<svg width="90" height="24" viewBox="0 0 90 24" fill="none" xmlns="http://www.w3.org/2000/svg">
<path d="M34.2242 9.16296C34.279 9.3678 34.2105 9.4907 34.0461 9.54532L32.4708 10.0096C32.279 10.0642 32.1831 10.0096 32.1146 9.81844C31.868 9.01275 31.3475 8.58942 30.3748 8.58942C28.8954 8.58942 28.3885 9.46339 28.3885 10.6378V13.3416C28.3885 14.516 28.8817 15.39 30.3748 15.39C31.594 15.39 32.2379 14.8301 32.2379 13.5874V13.2324H30.6351C30.4981 13.2324 30.4159 13.1641 30.4159 13.0002V11.4981C30.4022 11.3889 30.4844 11.2796 30.6077 11.266C30.6214 11.266 30.6351 11.266 30.6351 11.266H34.1968C34.3475 11.266 34.4297 11.3342 34.4297 11.4844V13.724C34.4297 15.8543 32.8543 17.4657 30.4022 17.4657C27.4981 17.4657 26.1419 15.745 26.1419 13.3963V10.5422C26.1419 8.19341 27.4981 6.47278 30.4022 6.47278C32.7447 6.48643 33.7995 7.8247 34.2242 9.16296ZM42.2106 11.8258V17.0696C42.2243 17.1789 42.1284 17.2745 42.0188 17.2881C42.0051 17.2881 42.0051 17.2881 41.9914 17.2881H40.3887C40.2791 17.3018 40.1695 17.2199 40.1558 17.097C40.1558 17.0833 40.1558 17.0696 40.1558 17.0696V16.2093C39.69 16.9877 38.8544 17.4657 37.9366 17.452C36.416 17.452 35.4434 16.4825 35.4434 14.9803C35.4434 13.5192 36.3612 12.6588 38.6078 12.495C39.0873 12.454 39.5804 12.454 40.0736 12.4813V11.8941C40.0736 11.1157 39.6626 10.8017 38.964 10.8017C38.2517 10.8017 38.0462 11.0884 37.8544 11.5391C37.7859 11.7166 37.7174 11.7439 37.5667 11.7029L35.964 11.2933C35.7996 11.2523 35.7859 11.1567 35.8133 11.0475C36.0324 9.90037 37.1283 9.05372 39.0462 9.05372C41.0736 9.06737 42.2106 10.0369 42.2106 11.8258ZM40.0736 14.5843V13.8196C39.6489 13.8059 39.2106 13.8196 38.7859 13.8605C37.964 13.9561 37.5393 14.2156 37.5393 14.8301C37.5393 15.39 37.9229 15.7041 38.5393 15.7041C39.2517 15.7041 39.8133 15.3217 40.0736 14.5843ZM47.9915 9.06737C49.0052 9.06737 49.6765 9.66823 49.9915 10.5285C50.5943 9.65457 51.3203 9.06737 52.334 9.06737C53.745 9.06737 54.5532 10.1871 54.5532 11.8531V17.0696C54.5532 17.2062 54.4299 17.2881 54.293 17.2881H52.6217C52.471 17.2881 52.3614 17.2062 52.3614 17.0696V12.2355C52.3614 11.5118 52.0463 11.0748 51.471 11.0748C50.8682 11.0748 50.4299 11.5664 50.2244 12.3174V17.0696C50.2381 17.1789 50.1422 17.2745 50.0326 17.2881H50.0189H48.2107C48.0737 17.2881 48.0189 17.2062 48.0189 17.0696V12.2355C48.0189 11.5118 47.6901 11.0748 47.1285 11.0748C46.512 11.0748 46.0737 11.5937 45.8819 12.3448V17.0833C45.8956 17.1926 45.8134 17.2881 45.7038 17.3018C45.6901 17.3018 45.6764 17.3018 45.6627 17.3018H43.8956C43.786 17.3155 43.6901 17.2335 43.6764 17.1243C43.6764 17.1106 43.6764 17.097 43.6764 17.0833V9.46339C43.6764 9.35414 43.7723 9.25855 43.8819 9.25855H43.8956H45.5942C45.7038 9.2449 45.7997 9.32683 45.8134 9.44974V9.46339V10.3783C46.2792 9.69554 46.9778 9.06737 47.9915 9.06737ZM63.7177 9.2449C63.7588 9.43608 63.704 9.57264 63.5259 9.62726L61.978 10.0779C61.7862 10.1325 61.6903 10.0642 61.6218 9.88672C61.4026 9.16296 61.0191 8.57577 59.9506 8.57577C58.6218 8.57577 58.1971 9.44973 58.1971 10.6241V13.328C58.1971 14.5024 58.6766 15.3763 59.9506 15.3763C61.0876 15.3763 61.5259 14.7345 61.704 13.9425C61.7451 13.765 61.8684 13.683 62.0602 13.7513L63.6081 14.2429C63.7862 14.2975 63.841 14.4341 63.7999 14.6253C63.4301 16.1957 62.2931 17.4793 59.9369 17.4793C57.2793 17.4793 55.9505 15.7587 55.9505 13.4099V10.5559C55.9505 8.20706 57.3204 6.48643 59.9369 6.48643C62.2383 6.48643 63.3205 7.7018 63.7177 9.2449ZM71.485 11.8258V17.0696C71.4987 17.1789 71.4028 17.2745 71.2932 17.2881C71.2795 17.2881 71.2795 17.2881 71.2658 17.2881H69.663C69.5534 17.3018 69.4438 17.2199 69.4301 17.097C69.4301 17.0833 69.4301 17.0696 69.4301 17.0696V16.2093C68.9644 16.9877 68.1287 17.4657 67.2109 17.452C65.6904 17.452 64.7177 16.4825 64.7177 14.9803C64.7177 13.5192 65.6356 12.6588 67.8822 12.495C68.3616 12.454 68.8548 12.454 69.3479 12.4813V11.8941C69.3479 11.1157 68.937 10.8017 68.2383 10.8017C67.526 10.8017 67.3205 11.0884 67.1287 11.5391C67.0602 11.7166 66.9917 11.7439 66.8411 11.7029L65.2383 11.2933C65.0739 11.2523 65.0602 11.1567 65.0876 11.0475C65.3068 9.90037 66.4027 9.05372 68.3205 9.05372C70.348 9.06737 71.485 10.0369 71.485 11.8258ZM69.3342 14.5843V13.8196C68.9096 13.8059 68.4712 13.8196 68.0466 13.8605C67.2246 13.9561 66.8 14.2156 66.8 14.8301C66.8 15.39 67.1835 15.7041 67.8 15.7041C68.526 15.7041 69.074 15.3217 69.3342 14.5843ZM77.7179 9.39511V10.9519C77.7179 11.1431 77.6494 11.2113 77.4576 11.2113H77.2248C76.0604 11.2113 75.3754 11.7302 75.1425 12.6042V17.0833C75.1562 17.1926 75.074 17.2881 74.9645 17.3018H74.9508H73.1151C73.0055 17.3018 72.9233 17.2062 72.9233 17.097C72.9233 17.097 72.9233 17.097 72.9233 17.0833V9.44974C72.9233 9.34049 73.0055 9.2449 73.1014 9.2449C73.1151 9.2449 73.1288 9.2449 73.1288 9.2449H74.7864C74.9645 9.2449 75.0056 9.35414 75.0056 9.47705V10.5559C75.3891 9.84575 76.1015 9.14931 77.348 9.14931C77.6631 9.14931 77.7179 9.19027 77.7179 9.39511ZM80.581 13.9425V14.2429C80.581 15.0896 81.0193 15.6768 82.0467 15.6768C83.0467 15.6768 83.3344 15.2944 83.5947 14.8164C83.7317 14.598 83.7865 14.5706 84.0194 14.6662L85.1701 15.2534C85.4029 15.3763 85.4166 15.4856 85.3207 15.7041C84.8276 16.8238 83.581 17.4657 82.0467 17.4657C79.7179 17.4657 78.485 16.0864 78.485 14.2019V12.3448C78.485 10.5149 79.6357 9.08103 82.0193 9.08103C84.2933 9.08103 85.4029 10.5149 85.4029 12.3038V13.5874C85.4029 13.8059 85.3344 13.9561 85.0194 13.9561L80.581 13.9425ZM80.581 12.2355V12.5086H83.3892V12.2355C83.3892 11.4571 82.9509 10.8426 81.9919 10.8426C81.033 10.8426 80.581 11.4571 80.581 12.2355Z" fill="white"/>
<path d="M13.2787 0.163818H3.49776C3.33337 0.163818 3.19638 0.300376 3.19638 0.464245V14.6389C3.19638 19.6916 7.30602 23.8019 12.3883 23.8019H13.2787C18.3473 23.8019 22.4569 19.7052 22.4569 14.6389V9.32683C22.4706 4.26055 18.361 0.163818 13.2787 0.163818ZM19.5254 14.7891C19.5254 18.2304 16.9774 20.8386 13.0321 20.8386C8.34713 20.8386 6.15532 18.0665 6.15532 14.2702V9.66823C6.15532 5.87192 8.34713 3.09981 13.0321 3.09981C16.8267 3.09981 18.539 5.25742 19.224 7.41503C19.3199 7.74277 19.1966 7.93395 18.9363 8.02954L16.3883 8.7806C16.087 8.87619 15.9226 8.7806 15.8267 8.48018C15.4294 7.18288 14.5801 6.48644 13.0321 6.48644C10.6348 6.48644 9.8266 7.89298 9.8266 9.79113V14.161C9.8266 16.0591 10.6211 17.4657 13.0321 17.4657C15.0048 17.4657 16.0459 16.5507 16.0459 14.557V13.9971H13.4157C13.2102 13.9971 13.0595 13.8742 13.0595 13.6284V11.2113C13.0595 10.9792 13.1965 10.829 13.4157 10.829H19.1555C19.3884 10.829 19.5254 10.9519 19.5254 11.184V14.7891Z" fill="white"/>
</svg>
