<svg width="206" height="20" viewBox="0 0 206 20" fill="none" xmlns="http://www.w3.org/2000/svg">
<path d="M4.36778 11.9886V15.5988H7.64351C8.89142 15.6657 9.98333 14.9302 10.0614 13.8604V13.7935C10.0614 12.657 8.96948 11.9215 7.33167 11.9215L4.36778 11.9886ZM4.36778 6.70695V9.916H7.40953C8.50144 9.98288 9.51536 9.31431 9.59322 8.37834V8.2446C9.59322 7.37551 8.57934 6.70693 7.17535 6.70693L4.36778 6.70695ZM0 4.56764H5.92759C8.57944 4.56764 9.51536 4.63452 10.2954 4.90189C11.7773 5.50361 12.6352 6.70698 12.6352 8.11112C12.6352 9.4482 12.1672 10.1168 10.6072 10.7854C12.2451 11.2534 13.3371 12.5905 13.1812 14.0614C13.1812 16.2676 11.1532 17.7383 8.18954 17.7383H0.000201708V15.599H1.17011V6.70716H0.000201708V4.56767" fill="white"/>
<path d="M23.1641 11.5207C23.1641 10.3842 22.0723 9.51506 20.8243 9.51506H20.7464C19.4205 9.51506 18.3286 10.3842 18.0946 11.454L23.1641 11.5207ZM26.1292 14.4623C25.5826 16.6687 23.4768 18.0057 20.669 18.0057C17.3932 18.0057 14.9754 15.7995 14.9754 12.7241C14.9754 9.64871 17.3932 7.44248 20.669 7.44248C22.4628 7.44248 24.1787 8.17785 25.1927 9.51506C25.9727 10.6516 26.4406 11.9218 26.3626 13.2591H17.9391C18.2511 15.8664 20.201 16.0003 20.747 16.0003C21.8389 16.0672 22.8529 15.3986 23.1649 14.5294L26.1286 14.4625" fill="white"/>
<path d="M35.8778 11.1866H41.2593V17.7384H39.5434V15.666C39.2316 16.1338 38.8415 16.5349 38.3735 16.9361C37.3597 17.6716 36.1117 18.0728 34.8638 18.0728C31.276 18.0728 28.4682 15.0643 28.4682 11.1866C28.4682 7.30894 31.276 4.23354 34.7859 4.23354C36.7356 4.16674 38.4516 5.10271 39.3875 6.50667V4.4341H41.0253V8.64598H39.3096C39.1535 8.04429 38.8415 7.50943 38.4516 7.04139C37.6716 6.17228 36.4238 5.63745 35.1758 5.57057C33.304 5.57057 30.4962 6.9746 30.4962 11.0528C30.4962 14.2618 32.524 16.6019 35.1758 16.6019C37.2817 16.5349 38.9976 15.1979 39.3875 13.4597C39.4655 13.1255 39.4655 12.7243 39.4655 12.39H35.7997L35.8778 11.1866Z" fill="white"/>
<path d="M51.0078 12.5902L49.9166 12.724C46.3288 13.1252 45.1589 13.66 45.1589 14.9303C45.237 16.0669 46.3288 16.8692 47.5768 16.8692C49.2925 16.8023 50.7745 15.7325 51.0084 14.2617L51.0078 12.5902ZM54.3616 17.8051H51.0078V16C50.2278 17.2704 48.668 18.0057 47.0302 18.0057C45.0803 18.1393 43.3643 16.8023 43.2084 15.1308V14.9303C43.2084 12.9916 45.1583 12.0555 49.8379 11.6543L50.9298 11.5875V10.5846C50.9298 9.44809 49.916 8.71264 48.2781 8.71264C46.6403 8.71264 45.7822 9.18062 45.4702 10.5177H43.6764C43.8323 9.7155 44.3002 8.98007 45.0022 8.44516C45.8603 7.84345 47.0302 7.57598 48.122 7.57598C50.5399 7.57598 52.5679 8.51202 52.5679 11.0525V16.6016H54.2057L54.3616 17.8051Z" fill="white"/>
<path d="M59.2759 9.58184C59.8219 8.91326 60.8359 7.50926 63.0198 7.50926C64.5796 7.50926 65.4375 8.17784 65.7495 9.58184C66.0616 9.11386 66.3734 8.71268 66.8416 8.31156C67.5435 7.77671 68.4014 7.44238 69.3373 7.44238C71.1311 7.44238 72.1451 8.44528 72.1451 10.1836V16.5348H73.7829V17.7382H70.5072V10.7184C70.5072 9.31437 69.9612 8.64581 68.7913 8.64581C66.7635 8.64581 65.6715 10.7184 65.6715 11.4537V16.5348H67.3874V17.7382H63.9557V10.5179C63.9557 9.24756 63.4097 8.71276 62.2398 8.71276C60.446 8.71276 59.12 10.6517 59.12 11.5876V16.6017H60.8359V17.8052H55.7662V16.6017H57.4821V8.84642H55.7662V7.643H59.1981L59.2759 9.58184Z" fill="white"/>
<path d="M78.8516 13.5264C78.8516 15.1978 80.3336 16.5349 82.2054 16.6687C84.2332 16.6687 85.4812 15.1309 85.4812 12.6572C85.4812 10.1835 84.1553 8.71264 82.2054 8.71264C80.4895 8.71264 78.7736 10.3172 78.7736 11.788L78.8516 13.5264ZM75.5759 3.96597H78.8516V9.78255C79.3196 9.04712 80.6454 7.57616 82.6734 7.57616C85.3252 7.57616 87.353 9.91621 87.353 12.8578C87.353 15.599 85.1691 17.9388 82.6734 17.9388C80.5676 17.9388 79.5536 16.7354 78.8516 15.9332V17.8052H75.4978V16.6018H77.1357V5.16933H75.5759V3.96597Z" fill="white"/>
<path d="M88.354 3.96605H91.7078V16.6019H93.2676V17.8053H88.276V16.6019H89.9919V5.1027H88.354V3.96605Z" fill="white"/>
<path d="M103.018 11.9218C103.018 10.9859 102.628 10.1168 101.848 9.3814C101.303 8.98029 100.6 8.71283 99.8984 8.77969C98.4167 8.84655 97.1687 9.71573 96.7788 10.919C96.7008 11.2533 96.5448 11.5876 96.5448 11.9218L103.018 11.9218ZM104.734 14.9972C104.578 15.599 104.266 16.067 103.798 16.5349C102.862 17.471 101.537 18.0057 100.055 18.0057C96.8567 18.0057 94.5949 15.8664 94.5949 12.791C94.5949 9.84928 96.8567 7.57614 99.7425 7.57614C102.628 7.57614 104.968 9.51506 104.968 13.0583H96.4668C96.6227 14.5291 97.0128 15.3984 97.7926 16.067C98.4167 16.5348 99.1965 16.8024 99.9765 16.8024C101.303 16.8024 102.16 16.2676 102.784 15.064L104.734 14.9972Z" fill="white"/>
<path d="M114.015 7.04136L111.988 12.9247H116.043L114.015 7.04136ZM112.143 4.56765H115.887L120.177 15.6659H121.347V17.8052H117.837L116.823 14.9303H111.363L110.349 17.8052H106.762V15.6659H107.932L112.143 4.56765Z" fill="white"/>
<path d="M121.19 7.70994H125.87V9.64885H124.7L126.338 15.5991L128.288 7.71011H131.329L133.279 15.4654L134.839 9.64885H133.669V7.70994H138.349V9.64885H137.335L134.839 17.7384H131.719L129.77 10.7855L127.897 17.7384H124.778L122.204 9.64885H121.19V7.70994Z" fill="white"/>
<path d="M146.617 13.0584C143.886 13.2588 142.093 13.4596 142.093 14.8634C142.093 15.6658 142.873 16.2006 144.043 16.2006C145.447 16.2006 146.617 15.2647 146.695 14.0613V13.9944V13.0584H146.617ZM149.425 15.8664H150.439V17.8051H146.773V16.6017C145.915 17.5376 144.589 18.0056 143.185 18.0056C140.846 18.0056 139.052 16.6686 139.052 14.8633C139.052 11.9217 142.952 11.5875 146.695 11.32C146.695 9.78229 146.071 9.31437 144.589 9.31437C143.107 9.31437 142.562 9.91607 142.484 10.852V10.9189L139.676 10.852C139.832 8.84638 141.704 7.57607 144.511 7.57607C147.787 7.57607 149.503 8.84636 149.503 11.1195L149.425 15.8664Z" fill="white"/>
<path d="M155.969 9.31441C156.749 8.04419 157.606 7.50932 158.932 7.50932C159.4 7.50932 159.79 7.57611 160.258 7.64299V9.98304C159.79 9.91616 159.322 9.8493 158.854 9.8493C157.372 9.78251 156.124 10.7185 156.047 11.9219V15.7995H157.45V17.7383H151.991V15.7995H153.161V9.64873H151.991V7.70981H155.969V9.31441Z" fill="white"/>
<path d="M168.993 11.5207C168.993 10.3842 167.901 9.51506 166.653 9.51506H166.575C165.249 9.51506 164.157 10.3842 163.923 11.454L168.993 11.5207ZM172.035 14.4623C171.49 16.6687 169.384 18.0057 166.576 18.0057C163.301 18.0057 160.883 15.7995 160.883 12.7241C160.883 9.64871 163.301 7.44248 166.576 7.44248C168.37 7.44248 170.086 8.17785 171.1 9.51506C171.88 10.6516 172.348 11.9218 172.27 13.2591H163.847C164.158 15.8664 166.108 16.0003 166.654 16.0003C167.746 16.0672 168.76 15.3986 169.072 14.5294L172.036 14.4625" fill="white"/>
<path d="M202.091 3.00041C202.202 2.98398 202.299 2.95338 202.381 2.90756C202.464 2.86191 202.531 2.80053 202.581 2.72289C202.63 2.64578 202.656 2.54601 202.656 2.42255C202.656 2.25207 202.599 2.11305 202.488 2.00602C202.379 1.89882 202.2 1.84539 201.954 1.84539H200.65V3.02393H201.744C201.865 3.02393 201.982 3.01597 202.091 3.00041ZM201.982 1.46655C202.357 1.46655 202.65 1.54505 202.862 1.70309C203.073 1.86095 203.178 2.07709 203.178 2.35132C203.178 2.55708 203.126 2.73655 203.017 2.89131C202.908 3.04606 202.734 3.15188 202.494 3.20859V3.21775C202.609 3.23677 202.702 3.26807 202.775 3.31233C202.845 3.35694 202.902 3.40968 202.944 3.47106C202.987 3.53244 203.019 3.60109 203.039 3.67682C203.059 3.75256 203.075 3.8314 203.085 3.9137C203.093 3.99601 203.098 4.0797 203.102 4.16442C203.106 4.25001 203.116 4.33352 203.13 4.41531C203.144 4.49744 203.166 4.57594 203.194 4.6496C203.221 4.72412 203.263 4.78931 203.317 4.84619H202.732C202.696 4.81144 202.67 4.76389 202.658 4.70441C202.644 4.64441 202.636 4.57715 202.634 4.50262C202.63 4.42897 202.626 4.34926 202.621 4.26367C202.617 4.17877 202.607 4.09526 202.589 4.01295C202.573 3.93082 202.555 3.85301 202.533 3.77866C202.511 3.70483 202.476 3.64017 202.428 3.58466C202.381 3.52916 202.317 3.48541 202.24 3.45222C202.164 3.41884 202.061 3.40259 201.932 3.40259H200.65V4.84619H200.126V1.46655H201.982Z" fill="white"/>
<path d="M201.593 0.534781C199.83 0.534781 198.395 1.76446 198.395 3.27579C198.395 4.7873 199.83 6.01697 201.593 6.01697C203.355 6.01697 204.791 4.78726 204.791 3.27579C204.791 1.76446 203.355 0.534781 201.593 0.534781ZM201.593 6.55176C199.486 6.55176 197.771 5.08206 197.771 3.27579C197.771 1.46966 199.486 -4.76837e-06 201.593 -4.76837e-06C203.7 -4.76837e-06 205.414 1.46966 205.414 3.27579C205.414 5.08209 203.7 6.55176 201.593 6.55176Z" fill="white"/>
<path d="M173.668 16.4809H175.126V17.7034H173.668V16.4809Z" fill="white"/>
<path d="M180.25 16.9645C181.848 16.9645 182.804 15.8632 182.804 14.0499C182.804 12.3442 181.801 11.2562 180.25 11.2562C178.73 11.2562 177.79 12.3443 177.79 14.1037C177.79 15.9035 178.715 16.9645 180.25 16.9645ZM176.427 14.0767C176.427 11.8742 178.01 10.3562 180.297 10.3562C182.538 10.3562 184.167 11.9278 184.167 14.0767C184.167 16.32 182.569 17.8645 180.266 17.8645C177.978 17.8645 176.427 16.3333 176.427 14.0767Z" fill="white"/>
<path d="M187.459 12.1292C187.867 11.377 188.086 11.1487 188.462 10.8399C188.901 10.5174 189.449 10.3428 189.997 10.3428C190.201 10.3428 190.483 10.3697 190.906 10.4235V11.4845C190.483 11.4174 190.233 11.3905 190.013 11.3905C187.726 11.3905 187.459 13.4187 187.459 13.5262V16.8572H188.901V17.7034H185.046V16.8572H186.253V11.3233H184.999V10.4636H187.459V12.1292Z" fill="white"/>
<path d="M197.518 13.1367C197.518 12.3443 196.39 11.2161 195.105 11.2161C193.727 11.2161 192.88 12.183 192.88 13.7546C192.88 15.3529 193.742 16.3201 195.184 16.3201C196.422 16.3201 197.518 15.2858 197.518 14.4397V13.1367ZM197.518 15.9306C196.751 16.8573 195.905 17.1661 194.98 17.1661C192.959 17.1661 191.564 15.7424 191.564 13.6873C191.564 11.7397 192.927 10.3564 194.839 10.3564C196.39 10.3564 197.08 11.2025 197.518 11.7533V10.4637H199.9V11.3234H198.725V17.2601C198.725 19.0061 197.424 20.0001 195.137 20.0001C193.742 20.0001 192.551 19.4762 191.987 18.6301C191.877 18.4554 191.783 18.2808 191.642 17.9182H193.005C193.507 18.7912 194.102 19.1135 195.23 19.1135C196.656 19.1135 197.518 18.4824 197.518 17.4346V15.9304" fill="white"/>
</svg>
