<svg width="120" height="40" viewBox="0 0 120 40" fill="none" xmlns="http://www.w3.org/2000/svg">
<path d="M60.8755 22.8325H58.1288L57.8884 20.5182C56.5837 22.1762 54.764 23.0398 52.4979 23.0398C50.2318 23.0398 48.3434 22.2453 46.8326 20.6218C45.3219 18.9983 44.5665 17.0294 44.5665 14.6805C44.5665 12.3317 45.3219 10.3627 46.8326 8.73925C48.3434 7.11576 50.2318 6.32129 52.4979 6.32129C54.764 6.32129 56.5494 7.18484 57.8884 8.87742L58.1288 6.56309H60.8755V22.8325ZM53.1846 18.9983C54.1803 18.9292 55.073 18.5493 55.8283 17.7893C56.6524 16.9949 57.0644 15.9586 57.0644 14.646C57.0644 13.3679 56.6524 12.3316 55.8283 11.5026C55.0043 10.6736 54.0086 10.2937 52.9099 10.2937C51.7768 10.2937 50.8155 10.7082 49.9914 11.5026C49.1674 12.3316 48.7554 13.3679 48.7554 14.646C48.7554 15.9586 49.1674 17.0294 50.0258 17.8239C50.8841 18.6529 52.0172 19.0674 53.1846 18.9983Z" fill="white"/>
<path d="M25.8541 6.28674C29.2876 6.28674 31.6566 7.73752 32.9957 10.6736C33.3047 11.399 33.5107 12.2626 33.5451 13.2643C33.5794 14.266 33.4764 15.1296 33.2704 15.7859H21.9742C21.9742 16.8567 22.3519 17.6857 23.1073 18.3075C23.8627 18.9292 24.824 19.2056 25.9571 19.2056C27.7425 19.2056 29.3906 18.8256 30.8326 18.0657L32.9957 20.4491C30.7296 22.1417 28.3605 23.0052 25.9227 23.0052C23.485 23.0052 21.4936 22.2107 19.9485 20.6563C18.4034 19.0674 17.6481 17.0985 17.6481 14.6805C17.6481 12.2971 18.4034 10.2936 19.8798 8.7047C21.4249 7.11576 23.4163 6.28674 25.8541 6.28674ZM25.8541 10.0864C24.7897 10.0864 23.9313 10.3973 23.2103 11.019C22.5236 11.6408 22.1459 12.3662 22.0773 13.1952H29.4936C29.4936 12.7116 29.3562 12.2971 29.1159 11.8826C28.4979 10.7082 27.3991 10.0864 25.8541 10.0864Z" fill="white"/>
<path d="M120 22.8323H117.253L117.013 20.518C115.708 22.176 113.889 23.0396 111.622 23.0396C109.356 23.0396 107.468 22.2451 105.957 20.6216C104.446 18.9981 103.691 17.0292 103.691 14.6804C103.691 12.3315 104.446 10.3626 105.957 8.73908C107.468 7.11559 109.356 6.32112 111.622 6.32112C113.408 6.32112 114.816 6.94288 115.88 8.15186V0.0344238H120V22.8323ZM112 18.9981C113.133 18.9981 114.129 18.6182 114.987 17.7892C115.811 16.9947 116.223 15.9584 116.223 14.6458C116.223 13.3677 115.811 12.3315 114.987 11.5025C114.163 10.6734 113.167 10.2935 112.069 10.2935C110.936 10.2935 109.974 10.708 109.15 11.5025C108.326 12.3315 107.914 13.3677 107.914 14.6458C107.914 16.062 108.429 17.2019 109.425 18.031C110.112 18.6527 111.039 18.9981 112 18.9981Z" fill="white"/>
<path d="M16.309 14.6805C16.309 12.8152 16.7897 11.1572 17.7167 9.77547V0H13.2532V9.22279H4.46352V0H0V22.7979H4.46352V13.437H13.2532V22.7979H17.7167V19.5164C16.7897 18.1692 16.309 16.5458 16.309 14.6805Z" fill="white"/>
<path d="M34.9528 22.8323V0.0344238H39.1073V22.8323H34.9528Z" fill="white"/>
<path d="M77.1502 20.3109C75.5365 18.6874 74.7468 16.7185 74.7468 14.4042C74.7468 12.3316 75.3991 10.5355 76.7038 9.0156C76.6352 8.94651 76.5665 8.84288 76.4635 8.77379C74.8498 7.15031 72.8927 6.32129 70.5579 6.32129C68.2575 6.32129 66.3004 7.15031 64.6867 8.77379C63.0729 10.3973 62.2489 12.3662 62.2489 14.7151C62.2489 17.0294 63.0386 18.9983 64.6523 20.6218C66.2661 22.2453 68.2232 23.0743 70.5236 23.0743C71.6223 23.0743 72.618 22.9016 73.545 22.5216C73.03 25.0778 72.6523 25.5959 71.691 27.0121C73.751 26.7358 76.3262 26.1486 77.9056 22.9707C78.1116 22.5907 78.2489 22.038 78.3862 21.4508C78.0085 21.1054 77.5622 20.7254 77.1502 20.3109ZM73.5107 17.7893C72.6523 18.6184 71.6566 18.9983 70.5236 18.9983C69.5965 18.9983 68.6695 18.6529 67.9141 18.0657C66.8841 17.2367 66.4034 16.0968 66.4034 14.6805C66.4034 13.4025 66.8154 12.3662 67.6395 11.5372C68.4635 10.7082 69.4592 10.3282 70.5579 10.3282C71.691 10.3282 72.6523 10.7427 73.4764 11.5372C74.3004 12.3662 74.7124 13.4025 74.7124 14.6805C74.7468 15.9586 74.3347 16.9949 73.5107 17.7893Z" fill="#FA2B65"/>
<path d="M77.1502 20.3109C75.5365 18.6874 74.7468 16.7185 74.7468 14.4042C74.7468 12.3316 75.3991 10.5355 76.7038 9.0156C76.6352 8.94651 76.5665 8.84288 76.4635 8.77379C74.8498 7.15031 72.8927 6.32129 70.5579 6.32129C68.2575 6.32129 66.3004 7.15031 64.6867 8.77379C63.0729 10.3973 62.2489 12.3662 62.2489 14.7151C62.2489 17.0294 63.0386 18.9983 64.6523 20.6218C66.2661 22.2453 68.2232 23.0743 70.5236 23.0743C71.6223 23.0743 72.618 22.9016 73.545 22.5216C73.03 25.0778 72.6523 25.5959 71.691 27.0121C73.751 26.7358 76.3262 26.1486 77.9056 22.9707C78.1116 22.5907 78.2489 22.038 78.3862 21.4508C78.0085 21.1054 77.5622 20.7254 77.1502 20.3109ZM73.5107 17.7893C72.6523 18.6184 71.6566 18.9983 70.5236 18.9983C69.5965 18.9983 68.6695 18.6529 67.9141 18.0657C66.8841 17.2367 66.4034 16.0968 66.4034 14.6805C66.4034 13.4025 66.8154 12.3662 67.6395 11.5372C68.4635 10.7082 69.4592 10.3282 70.5579 10.3282C71.691 10.3282 72.6523 10.7427 73.4764 11.5372C74.3004 12.3662 74.7124 13.4025 74.7124 14.6805C74.7468 15.9586 74.3347 16.9949 73.5107 17.7893Z" fill="#FA2B65"/>
<path d="M78.9013 36.8568V33.9552C78.9013 33.0226 78.2832 32.3663 77.3562 32.3663C76.4292 32.3663 75.8111 33.0571 75.8111 33.9898V36.8913H75.3305V33.9898C75.3305 33.0571 74.6781 32.3663 73.7854 32.3663C72.8584 32.3663 72.2403 33.0571 72.2403 33.9898V36.8913H71.7596V32.0209H72.206V32.8153C72.5493 32.159 73.1674 31.9172 73.7854 31.9172C74.5064 31.9172 75.2961 32.2627 75.5708 33.1262C75.8798 32.3317 76.6352 31.9172 77.3562 31.9172C78.5236 31.9172 79.382 32.7463 79.382 33.9552V36.8568H78.9013Z" fill="white"/>
<path d="M85.8712 31.9863C85.8712 33.6098 85.8712 35.2333 85.8712 36.8568H85.3905V35.8205C84.9098 36.5804 84.1888 36.9259 83.3991 36.9259C82.0601 36.9259 80.927 35.8896 80.927 34.4043C80.927 32.919 82.0257 31.9172 83.3991 31.9172C84.1888 31.9172 84.9785 32.2972 85.3905 33.0226V31.9518H85.8712V31.9863ZM81.442 34.4043C81.442 35.6133 82.3347 36.4423 83.4334 36.4423C86.1115 36.4423 86.1115 32.3663 83.4334 32.3663C82.3347 32.4008 81.442 33.1953 81.442 34.4043Z" fill="white"/>
<path d="M88.1031 31.9863L88.1374 32.8499C88.4464 32.1936 89.1331 31.9172 89.7511 31.9172C90.1288 31.9172 90.4722 32.0209 90.7812 32.1936L90.5751 32.5735C90.3348 32.4008 90.0258 32.3317 89.7511 32.3317C88.8584 32.3317 88.1717 33.0571 88.1717 33.9552V36.7877H87.691V31.9172H88.1031V31.9863Z" fill="white"/>
<path d="M92.4634 29.9482V34.0933L94.7295 31.9517H95.3819V31.9862L92.9441 34.266L95.6909 36.8222V36.8567H95.0729L92.4634 34.4733V36.8567H91.9828V29.9482H92.4634Z" fill="white"/>
<path d="M96.4807 34.404C96.4807 32.9533 97.5794 31.8824 98.9528 31.8824C100.326 31.8824 101.528 32.7114 101.356 34.6113H96.9957C97.0987 35.7512 97.9571 36.4075 98.9528 36.4075C99.6052 36.4075 100.326 36.1657 100.704 35.6821L101.047 35.9584C100.567 36.5802 99.7425 36.8911 98.9528 36.8911C97.5794 36.9256 96.4807 35.9584 96.4807 34.404ZM100.91 34.2313C100.91 33.0223 100.12 32.366 98.9528 32.366C97.9571 32.366 97.0987 33.0569 96.9957 34.2313H100.91Z" fill="white"/>
<path d="M103.966 30.5007V31.9515H105.614V32.366H103.966V35.3367C103.966 35.993 104.103 36.442 104.858 36.442C105.099 36.442 105.373 36.3729 105.614 36.2347L105.785 36.6147C105.476 36.7529 105.167 36.8565 104.858 36.8565C103.828 36.8565 103.485 36.2347 103.485 35.3021V32.3315H102.455V31.917H103.485V30.5007H103.966Z" fill="white"/>
<path d="M107.846 30.3973C107.846 30.9154 107.056 30.9154 107.056 30.3973C107.09 29.8791 107.846 29.8791 107.846 30.3973ZM107.227 31.9517V36.8221H107.708V31.9517H107.227Z" fill="white"/>
<path d="M110.009 31.9861V32.8496C110.386 32.1933 111.073 31.917 111.725 31.8824C113.03 31.8824 113.923 32.6769 113.923 34.0241V36.822H113.442V34.0241C113.442 32.9187 112.755 32.3315 111.725 32.3315C110.73 32.3315 110.043 33.0914 110.043 34.0931V36.7874H109.562V31.917H110.009V31.9861Z" fill="white"/>
<path d="M119.554 31.7789L119.863 32.0553L119.382 32.608C119.725 32.9879 119.966 33.4715 119.966 34.266C119.966 35.1295 119.451 35.9586 118.661 36.3385C119.519 36.6494 119.966 37.2366 119.966 38.0656C119.966 39.3782 118.936 40 117.665 40C116.395 40 115.365 39.2746 115.365 38.0656H115.845C115.845 39.0674 116.704 39.5164 117.665 39.5164C118.627 39.5164 119.485 39.0674 119.485 38.0656C119.485 37.0294 118.558 36.6149 117.665 36.6149C116.257 36.6149 115.399 35.544 115.399 34.266C115.399 32.7461 116.429 31.8826 117.665 31.8826C118.146 31.8826 118.661 32.0553 119.039 32.3316L119.554 31.7789ZM115.914 34.266C115.914 35.2677 116.601 36.1313 117.699 36.1313C118.695 36.1313 119.519 35.2677 119.519 34.266C119.519 33.0225 118.695 32.3662 117.699 32.3662C116.738 32.3662 115.914 32.9879 115.914 34.266Z" fill="white"/>
<path d="M88.5837 14.4042C88.5837 13.2643 88.8241 12.2626 89.2704 11.3299C88.9271 10.6736 88.5151 10.0519 87.9657 9.49918C86.6267 8.11748 84.9786 7.46118 83.0558 7.46118C81.1674 7.46118 79.5194 8.15203 78.1803 9.49918C76.8412 10.8463 76.1545 12.5044 76.1545 14.4387C76.1545 16.3385 76.8069 17.9966 78.146 19.3437C79.485 20.6909 81.0987 21.3817 83.0215 21.3817C85.2533 21.3817 87.1073 20.4491 88.5837 18.6183C88.8584 18.2729 89.0644 17.9275 89.2704 17.5475C88.8241 16.5803 88.5837 15.5441 88.5837 14.4042ZM85.4936 17.0294C84.8069 17.7202 83.9485 18.0311 83.0215 18.0311C82.2318 18.0311 81.4764 17.7548 80.8584 17.2366C80 16.5458 79.588 15.6132 79.588 14.4042C79.588 13.3334 79.9314 12.4698 80.6181 11.779C81.3048 11.0881 82.1288 10.7772 83.0558 10.7772C83.9829 10.7772 84.8069 11.1227 85.4936 11.779C86.1803 12.4698 86.5236 13.3334 86.5236 14.4042C86.5236 15.475 86.1803 16.3385 85.4936 17.0294Z" fill="white"/>
<path d="M102.421 14.6805C102.421 13.437 102.627 12.2971 103.073 11.2608C102.764 10.6391 102.318 10.0519 101.803 9.49918C100.464 8.11748 98.8155 7.46118 96.8927 7.46118C95.0043 7.46118 93.3562 8.15203 92.0172 9.49918C90.6781 10.8463 89.9915 12.5044 89.9915 14.4387C89.9915 16.3385 90.6438 17.9966 91.9829 19.3437C93.3219 20.6909 94.9357 21.3817 96.8584 21.3817C99.0902 21.3817 100.944 20.4491 102.421 18.6183C102.627 18.3765 102.764 18.1347 102.936 17.8584C102.592 16.8567 102.421 15.8204 102.421 14.6805ZM99.3305 17.0294C98.6438 17.7202 97.7854 18.0311 96.8584 18.0311C96.0687 18.0311 95.3133 17.7548 94.6953 17.2366C93.8369 16.5458 93.4249 15.6132 93.4249 14.4042C93.4249 13.3334 93.7683 12.4698 94.455 11.779C95.1417 11.0881 95.9657 10.7772 96.8927 10.7772C97.8198 10.7772 98.6438 11.1227 99.3305 11.779C100.017 12.4698 100.361 13.3334 100.361 14.4042C100.361 15.475 100.017 16.3385 99.3305 17.0294Z" fill="white"/>
<path d="M43.2275 14.6804C43.2275 12.8496 43.7082 11.2261 44.6352 9.84443V0.0344238H40.4807V22.8323H44.6352V19.5163C43.7082 18.1346 43.2275 16.5111 43.2275 14.6804Z" fill="white"/>
</svg>
