<svg width="37" height="24" viewBox="0 0 37 24" fill="none" xmlns="http://www.w3.org/2000/svg">
<path d="M11.398 6.99219V17H10.1333V8.57129L7.58353 9.50098V8.35938L11.1997 6.99219H11.398ZM21.3921 14.3066C21.3921 14.9128 21.2508 15.4277 20.9683 15.8516C20.6903 16.2708 20.312 16.5898 19.8335 16.8086C19.3596 17.0273 18.8241 17.1367 18.2271 17.1367C17.6301 17.1367 17.0923 17.0273 16.6138 16.8086C16.1353 16.5898 15.757 16.2708 15.479 15.8516C15.201 15.4277 15.062 14.9128 15.062 14.3066C15.062 13.9102 15.1372 13.5479 15.2876 13.2197C15.4426 12.887 15.659 12.5977 15.937 12.3516C16.2196 12.1055 16.5523 11.9163 16.9351 11.7842C17.3225 11.6475 17.7486 11.5791 18.2134 11.5791C18.8241 11.5791 19.3687 11.6976 19.8472 11.9346C20.3257 12.167 20.7017 12.4883 20.9751 12.8984C21.2531 13.3086 21.3921 13.778 21.3921 14.3066ZM20.1206 14.2793C20.1206 13.9102 20.0409 13.5843 19.8814 13.3018C19.7219 13.0146 19.4986 12.7913 19.2115 12.6318C18.9243 12.4723 18.5917 12.3926 18.2134 12.3926C17.826 12.3926 17.4911 12.4723 17.2085 12.6318C16.9305 12.7913 16.7141 13.0146 16.5591 13.3018C16.4042 13.5843 16.3267 13.9102 16.3267 14.2793C16.3267 14.6621 16.4019 14.9902 16.5523 15.2637C16.7072 15.5326 16.926 15.7399 17.2085 15.8857C17.4956 16.027 17.8352 16.0977 18.2271 16.0977C18.619 16.0977 18.9562 16.027 19.2388 15.8857C19.5214 15.7399 19.7378 15.5326 19.8882 15.2637C20.0432 14.9902 20.1206 14.6621 20.1206 14.2793ZM21.1597 9.6377C21.1597 10.1208 21.0321 10.556 20.7769 10.9434C20.5217 11.3307 20.173 11.6361 19.731 11.8594C19.2889 12.0827 18.7876 12.1943 18.2271 12.1943C17.6574 12.1943 17.1493 12.0827 16.7027 11.8594C16.2606 11.6361 15.9143 11.3307 15.6636 10.9434C15.413 10.556 15.2876 10.1208 15.2876 9.6377C15.2876 9.05892 15.413 8.56673 15.6636 8.16113C15.9188 7.75553 16.2674 7.44564 16.7095 7.23145C17.1516 7.01725 17.6551 6.91016 18.2202 6.91016C18.7899 6.91016 19.2958 7.01725 19.7378 7.23145C20.1799 7.44564 20.5262 7.75553 20.7769 8.16113C21.0321 8.56673 21.1597 9.05892 21.1597 9.6377ZM19.8951 9.6582C19.8951 9.32552 19.8244 9.03158 19.6831 8.77637C19.5419 8.52116 19.3459 8.32064 19.0952 8.1748C18.8446 8.02441 18.5529 7.94922 18.2202 7.94922C17.8876 7.94922 17.5959 8.01986 17.3452 8.16113C17.0992 8.29785 16.9055 8.49382 16.7642 8.74902C16.6275 9.00423 16.5591 9.30729 16.5591 9.6582C16.5591 10 16.6275 10.2985 16.7642 10.5537C16.9055 10.8089 17.1014 11.0072 17.3521 11.1484C17.6027 11.2897 17.8944 11.3604 18.2271 11.3604C18.5598 11.3604 18.8492 11.2897 19.0952 11.1484C19.3459 11.0072 19.5419 10.8089 19.6831 10.5537C19.8244 10.2985 19.8951 10 19.8951 9.6582ZM29.5201 11.6611V12.8506H22.6978V11.6611H29.5201ZM26.7447 8.75586V16.002H25.48V8.75586H26.7447Z" fill="white"/>
<rect x="0.914581" y="0.5" width="35" height="23" rx="11.5" stroke="white"/>
</svg>
