<svg width="24" height="24" viewBox="0 0 24 24" fill="none" xmlns="http://www.w3.org/2000/svg">
<g id="rugby">
<path id="Vector" d="M15.5537 15.5649C17.2632 13.8501 18.1727 11.5776 18.2737 8.78986C17.3558 10.8258 16.0505 12.6843 14.3663 14.3738C12.6821 16.0634 10.8295 17.3728 8.79998 18.2936C11.5789 18.2175 13.819 17.3052 15.5537 15.5649ZM8.4463 8.43506C6.73682 10.1499 5.82734 12.4224 5.72629 15.2101C6.10523 14.3654 6.69471 13.3939 7.46103 12.2957C8.21051 11.1975 8.95156 10.3105 9.63367 9.62619C11.3179 7.93664 13.1705 6.62724 15.2 5.70644C12.4211 5.78247 10.181 6.69483 8.4463 8.43506ZM19.1579 4.81943C19.579 5.28406 19.8653 6.17951 19.9748 7.5227C20.0758 8.87434 19.8737 10.4456 19.36 12.2534C18.8463 14.0697 17.9874 15.5734 16.7748 16.7899C15.6716 17.9134 14.3579 18.7159 12.8421 19.2228C11.3347 19.7381 9.8442 20 8.37051 20C6.57682 20 5.40628 19.7212 4.84207 19.1806C4.42102 18.7159 4.1347 17.8205 4.02522 16.4773C3.92417 15.1257 4.12628 13.5544 4.63996 11.7466C5.15365 9.93031 6.0126 8.42661 7.22524 7.21014C8.3284 6.08659 9.64209 5.28406 11.1579 4.77719C12.6653 4.26188 14.1558 4 15.6295 4C17.4232 4 18.5937 4.27878 19.1579 4.81943Z" fill="white"/>
</g>
</svg>
