<svg width="24" height="24" viewBox="0 0 24 24" fill="none" xmlns="http://www.w3.org/2000/svg">
<path d="M14.456 11.4L13.736 12.136C13.16 12.712 12.8 13.2 12.8 14.4H11.2V14C11.2 13.112 11.56 12.312 12.136 11.736L13.128 10.728C13.424 10.44 13.6 10.04 13.6 9.6C13.6 8.712 12.88 8 12 8C11.5757 8 11.1687 8.16857 10.8686 8.46863C10.5686 8.76869 10.4 9.17565 10.4 9.6H8.8C8.8 8.75131 9.13714 7.93737 9.73726 7.33726C10.3374 6.73714 11.1513 6.4 12 6.4C12.8487 6.4 13.6626 6.73714 14.2627 7.33726C14.8629 7.93737 15.2 8.75131 15.2 9.6C15.2 10.304 14.912 10.936 14.456 11.4ZM12.8 17.6H11.2V16H12.8M12 4C10.9494 4 9.90914 4.20693 8.93853 4.60896C7.96793 5.011 7.08601 5.60028 6.34315 6.34315C4.84285 7.84344 4 9.87827 4 12C4 14.1217 4.84285 16.1566 6.34315 17.6569C7.08601 18.3997 7.96793 18.989 8.93853 19.391C9.90914 19.7931 10.9494 20 12 20C14.1217 20 16.1566 19.1571 17.6569 17.6569C19.1571 16.1566 20 14.1217 20 12C20 7.576 16.4 4 12 4Z" fill="white"/>
</svg>
