<svg width="24" height="24" viewBox="0 0 24 24" fill="none" xmlns="http://www.w3.org/2000/svg">
<path d="M20 12C20 16.4218 16.4218 20 12 20C7.57818 20 4 16.4218 4 12C4 7.57818 7.57818 4 12 4C16.4218 4 20 7.57818 20 12ZM12.7273 6.22545C14.2764 6.42182 15.6873 7.23636 16.6327 8.48L17.8982 7.75273C16.6909 6.05091 14.8073 4.94545 12.7273 4.72727V6.22545ZM6.10182 7.75273L7.36727 8.48C8.31273 7.23636 9.72364 6.42182 11.2727 6.22545V4.72727C9.19273 4.94545 7.30909 6.05091 6.10182 7.75273ZM5.37455 14.9818L6.63273 14.2545C6.02909 12.8145 6.02909 11.1855 6.63273 9.74545L5.37455 9.01818C4.50909 10.9091 4.50909 13.0909 5.37455 14.9818ZM11.2727 17.7745C9.72364 17.5782 8.31273 16.7636 7.36727 15.52L6.10182 16.2473C7.30909 17.9491 9.19273 19.0545 11.2727 19.2727V17.7745ZM17.8982 16.2473L16.6327 15.52C15.6873 16.7636 14.2764 17.5782 12.7273 17.7745V19.2291C14.8 19.0182 16.6836 17.9345 17.8982 16.2473ZM18.6255 14.9818C19.4909 13.0909 19.4909 10.9091 18.6255 9.01818L17.3673 9.74545C17.9709 11.1855 17.9709 12.8145 17.3673 14.2545L18.6255 14.9818ZM14.1818 12L12 8.36364L9.81818 12L12 15.6364L14.1818 12Z" fill="white"/>
</svg>
