<svg width="24" height="24" viewBox="0 0 24 24" fill="none" xmlns="http://www.w3.org/2000/svg">
<g id="1 70">
<g id="Group">
<path id="Vector" d="M18.7653 7.82844L12.2347 4.06281C12.1633 4.02166 12.0824 4 12 4C11.9176 4 11.8367 4.02166 11.7653 4.06281L5.23468 7.82844C5.16333 7.86957 5.10407 7.92875 5.06288 8C5.02169 8.07126 5 8.15209 5 8.23437V15.7656C5 15.8479 5.02169 15.9287 5.06288 16C5.10407 16.0713 5.16333 16.1304 5.23468 16.1716L11.7653 19.9372C11.8367 19.9783 11.9176 20 12 20C12.0824 20 12.1633 19.9783 12.2347 19.9372L18.7653 16.1716C18.8367 16.1304 18.8959 16.0713 18.9371 16C18.9783 15.9287 19 15.8479 19 15.7656V8.23437C19 8.15209 18.9783 8.07126 18.9371 8C18.8959 7.92874 18.8367 7.86957 18.7653 7.82844ZM10.2405 13.5063C10.2405 13.7651 10.0303 13.975 9.7711 13.975H9.26836C9.1757 13.975 9.08511 13.9476 9.00801 13.8963C8.93091 13.8449 8.87075 13.772 8.83512 13.6865L7.97817 11.6325V13.5063C7.95508 14.1275 7.06234 14.1271 7.03947 13.5063V10.4937C7.03947 10.2349 7.24961 10.025 7.50882 10.025H8.01156C8.10422 10.025 8.19481 10.0524 8.27191 10.1037C8.34901 10.1551 8.40917 10.228 8.4448 10.3135L9.30175 12.3675V10.4937C9.32484 9.87247 10.2176 9.87294 10.2405 10.4937V13.5063ZM13.5082 10.9625H12V11.7823H13.0054C13.6275 11.8053 13.6271 12.6969 13.0054 12.7198H12V13.5063C11.9769 14.1275 11.0842 14.1271 11.0613 13.5063V10.4937C11.0613 10.2349 11.2714 10.025 11.5306 10.025H13.5082C14.1303 10.0481 14.1298 10.9397 13.5082 10.9625ZM16.7759 10.9625H16.2398V13.5063C16.2167 14.1275 15.324 14.1271 15.3011 13.5063V10.9625H14.765C14.1429 10.9394 14.1434 10.0478 14.765 10.025H16.776C17.398 10.0481 17.3975 10.9397 16.7759 10.9625Z" fill="white"/>
</g>
</g>
</svg>
