<svg width="24" height="24" viewBox="0 0 24 24" fill="none" xmlns="http://www.w3.org/2000/svg">
<g id="1 72">
<g id="Group">
<path id="Vector" d="M20.4 5.04441L18.956 3.60041L17.876 2.51641C17.72 2.36041 17.464 2.36041 17.308 2.51641C17.152 2.67241 17.152 2.92841 17.308 3.08441L18.108 3.88441L16.352 5.63641L18.364 7.64841L20.116 5.89241L20.916 6.69241C20.996 6.76841 21.096 6.80841 21.2 6.80841C21.304 6.80841 21.404 6.76841 21.484 6.69241C21.64 6.53641 21.64 6.28041 21.484 6.12441L20.4 5.04441ZM2.80005 21.6004C2.90405 21.6004 3.00405 21.5604 3.08405 21.4844L5.68405 18.8804L6.48405 19.6804C6.56405 19.7564 6.66805 19.7964 6.76805 19.7964C6.87205 19.7964 6.97205 19.7564 7.05205 19.6804L7.64805 19.0844L4.91605 16.3524L4.32005 16.9484C4.16405 17.1044 4.16405 17.3604 4.32005 17.5164L5.12005 18.3164L2.51605 20.9164C2.36005 21.0724 2.36005 21.3284 2.51605 21.4844C2.59605 21.5604 2.69605 21.6004 2.80005 21.6004ZM8.65205 18.9564C8.68849 18.9945 8.73226 19.0248 8.78073 19.0455C8.8292 19.0662 8.88135 19.0768 8.93405 19.0768C8.98675 19.0768 9.0389 19.0662 9.08737 19.0455C9.13583 19.0248 9.17961 18.9945 9.21605 18.9564L18.3132 9.85921L18.7528 10.2988C18.7899 10.3361 18.834 10.3657 18.8825 10.3859C18.931 10.406 18.9831 10.4164 19.0356 10.4164C19.0882 10.4164 19.1403 10.406 19.1888 10.3859C19.2373 10.3657 19.2814 10.3361 19.3184 10.2988C19.3556 10.2617 19.3851 10.2176 19.4052 10.1691C19.4254 10.1206 19.4357 10.0685 19.4357 10.016C19.4357 9.96348 19.4254 9.91146 19.4052 9.86294C19.3851 9.81441 19.3556 9.77033 19.3184 9.73321L14.2672 4.68241C14.1922 4.60741 14.0905 4.56527 13.9844 4.56527C13.8784 4.56527 13.7767 4.60741 13.7016 4.68241C13.6266 4.75742 13.5845 4.85914 13.5845 4.96521C13.5845 5.07128 13.6266 5.17301 13.7016 5.24801L14.1412 5.68761L5.04405 14.7844C5.00697 14.8214 4.97755 14.8654 4.95747 14.9138C4.9374 14.9622 4.92707 15.014 4.92707 15.0664C4.92707 15.1188 4.9374 15.1707 4.95747 15.2191C4.97755 15.2675 5.00697 15.3114 5.04405 15.3484L8.65205 18.9564ZM12.82 8.42041C12.976 8.26441 13.232 8.26441 13.388 8.42041L13.996 9.02841C14.152 9.18441 14.152 9.43641 13.996 9.59241C13.916 9.67241 13.812 9.71241 13.712 9.71241C13.608 9.71241 13.508 9.67241 13.428 9.59241L12.82 8.98441C12.783 8.94741 12.7535 8.90345 12.7335 8.85506C12.7134 8.80667 12.7031 8.7548 12.7031 8.70241C12.7031 8.65003 12.7134 8.59815 12.7335 8.54976C12.7535 8.50138 12.783 8.45742 12.82 8.42041ZM11.408 9.83641C11.4451 9.79933 11.489 9.76991 11.5374 9.74984C11.5858 9.72977 11.6377 9.71944 11.69 9.71944C11.7424 9.71944 11.7943 9.72977 11.8427 9.74984C11.8911 9.76991 11.935 9.79933 11.972 9.83641L12.58 10.4404C12.736 10.5964 12.736 10.8524 12.58 11.0084C12.5051 11.0828 12.4037 11.1246 12.298 11.1246C12.1924 11.1246 12.091 11.0828 12.016 11.0084L11.408 10.4004C11.371 10.3634 11.3415 10.3195 11.3215 10.2711C11.3014 10.2227 11.2911 10.1708 11.2911 10.1184C11.2911 10.066 11.3014 10.0142 11.3215 9.96576C11.3415 9.91737 11.371 9.87342 11.408 9.83641ZM9.99205 11.2484C10.148 11.0924 10.4 11.0924 10.56 11.2484L11.164 11.8564C11.324 12.0124 11.324 12.2644 11.164 12.4204C11.088 12.5004 10.984 12.5404 10.884 12.5404C10.78 12.5404 10.68 12.5004 10.6 12.4204L9.99205 11.8164C9.83605 11.6564 9.83605 11.4044 9.99205 11.2484ZM8.58005 12.6644C8.61705 12.6273 8.66101 12.5979 8.7094 12.5778C8.75779 12.5578 8.80966 12.5474 8.86205 12.5474C8.91444 12.5474 8.96631 12.5578 9.0147 12.5778C9.06309 12.5979 9.10704 12.6273 9.14405 12.6644L9.75205 13.2724C9.80787 13.3283 9.84583 13.3995 9.8611 13.4769C9.87638 13.5544 9.86829 13.6347 9.83786 13.7076C9.80742 13.7804 9.75602 13.8426 9.69018 13.8862C9.62433 13.9298 9.54702 13.9528 9.46805 13.9524C9.36805 13.9524 9.26405 13.9164 9.18405 13.8364L8.58005 13.2284C8.54297 13.1914 8.51355 13.1475 8.49347 13.0991C8.4734 13.0507 8.46307 12.9988 8.46307 12.9464C8.46307 12.894 8.4734 12.8422 8.49347 12.7938C8.51355 12.7454 8.54297 12.7014 8.58005 12.6644ZM7.16405 14.0764C7.20105 14.0393 7.24501 14.0099 7.2934 13.9898C7.34179 13.9698 7.39366 13.9594 7.44605 13.9594C7.49844 13.9594 7.55031 13.9698 7.5987 13.9898C7.64709 14.0099 7.69104 14.0393 7.72805 14.0764L8.33605 14.6844C8.49205 14.8404 8.49205 15.0924 8.33605 15.2524C8.26105 15.3268 8.15969 15.3686 8.05405 15.3686C7.94841 15.3686 7.84704 15.3268 7.77205 15.2524L7.16405 14.6444C7.00805 14.4884 7.00805 14.2324 7.16405 14.0764Z" fill="white"/>
</g>
</g>
</svg>
