<svg width="18" height="18" viewBox="0 0 18 18" fill="none" xmlns="http://www.w3.org/2000/svg">
<mask id="mask0_83_4818" style="mask-type:alpha" maskUnits="userSpaceOnUse" x="0" y="0" width="18" height="18">
<circle cx="9" cy="9" r="9" fill="#D9D9D9"/>
</mask>
<g mask="url(#mask0_83_4818)">
<path d="M-5.25 0.75V17.25H22.5V0.75H-5.25Z" fill="#012169"/>
<path d="M-5.25 0.75L22.5 17.25L-5.25 0.75ZM22.5 0.75L-5.25 17.25L22.5 0.75Z" fill="#212529"/>
<path fill-rule="evenodd" clip-rule="evenodd" d="M5.38901 9.00001L-6.10645 2.16487L-4.39317 -0.664856L8.62519 7.07579L21.6436 -0.664856L23.3568 2.16487L11.8614 9.00001L23.3568 15.8351L21.6436 18.6649L8.62519 10.9242L-4.39317 18.6649L-6.10645 15.8351L5.38901 9.00001Z" fill="white"/>
<mask id="mask1_83_4818" style="mask-type:luminance" maskUnits="userSpaceOnUse" x="-6" y="0" width="29" height="18">
<path d="M8.625 9H22.5V17.25L8.625 9ZM8.625 9V17.25H-5.25L8.625 9ZM8.625 9H-5.25V0.75L8.625 9ZM8.625 9V0.75H22.5L8.625 9Z" fill="white"/>
</mask>
<g mask="url(#mask1_83_4818)">
<path d="M-5.25 0.75L22.5 17.25L-5.25 0.75ZM22.5 0.75L-5.25 17.25L22.5 0.75Z" fill="#212529"/>
<path d="M-5.25 0.75L22.5 17.25M22.5 0.75L-5.25 17.25" stroke="#C8102E" stroke-width="80"/>
</g>
<path d="M-5.80518 6.8H6.40482V0.199997H10.8448V6.8H23.0548V11.2H10.8448V17.8H6.40482V11.2H-5.80518V6.8Z" fill="#C8102E"/>
<path fill-rule="evenodd" clip-rule="evenodd" d="M5.94444 -0.75H12.0556V6.39706H25.5V12.3529H12.0556V19.5H5.94444V12.3529H-7.5V6.39706H5.94444V-0.75ZM7.16667 0.441176V7.58823H-6.27778V11.1618H7.16667V18.3088H10.8333V11.1618H24.2778V7.58823H10.8333V0.441176H7.16667Z" fill="white"/>
</g>
</svg>
