<svg width="108" height="36" viewBox="0 0 108 36" fill="none" xmlns="http://www.w3.org/2000/svg">
<path d="M54.788 20.5492H52.3159L52.0996 18.4663C50.9253 19.9586 49.2875 20.7358 47.2481 20.7358C45.2086 20.7358 43.509 20.0207 42.1494 18.5596C40.7897 17.0985 40.1099 15.3264 40.1099 13.2124C40.1099 11.0985 40.7897 9.32644 42.1494 7.8653C43.509 6.40416 45.2086 5.68913 47.2481 5.68913C49.2875 5.68913 50.8944 6.46633 52.0996 7.98965L52.3159 5.90675H54.788V20.5492ZM47.8661 17.0985C48.7622 17.0363 49.5657 16.6943 50.2455 16.0104C50.9871 15.2954 51.3579 14.3627 51.3579 13.1814C51.3579 12.0311 50.9871 11.0985 50.2455 10.3523C49.5039 9.60623 48.6077 9.26426 47.6189 9.26426C46.5991 9.26426 45.7339 9.63732 44.9923 10.3523C44.2506 11.0985 43.8798 12.0311 43.8798 13.1814C43.8798 14.3627 44.2506 15.3264 45.0232 16.0415C45.7957 16.7876 46.8154 17.1606 47.8661 17.0985Z" fill="white"/>
<path d="M23.2687 5.65804C26.3588 5.65804 28.491 6.96374 29.6962 9.60622C29.9743 10.2591 30.1597 11.0363 30.1906 11.9378C30.2215 12.8394 30.1288 13.6166 29.9434 14.2073H19.7769C19.7769 15.171 20.1168 15.9171 20.7966 16.4767C21.4764 17.0363 22.3417 17.285 23.3614 17.285C24.9683 17.285 26.4515 16.943 27.7494 16.2591L29.6962 18.4041C27.6567 19.9275 25.5245 20.7047 23.3305 20.7047C21.1365 20.7047 19.3442 19.9896 17.9537 18.5907C16.5631 17.1606 15.8833 15.3886 15.8833 13.2124C15.8833 11.0674 16.5631 9.26425 17.8919 7.8342C19.2824 6.40415 21.0747 5.65804 23.2687 5.65804ZM23.2687 9.07772C22.3108 9.07772 21.5382 9.35752 20.8893 9.9171C20.2713 10.4767 19.9314 11.1295 19.8696 11.8756H26.5442C26.5442 11.4404 26.4206 11.0674 26.2043 10.6943C25.6481 9.63731 24.6593 9.07772 23.2687 9.07772Z" fill="white"/>
<path d="M108 20.5492H105.528L105.311 18.4663C104.137 19.9585 102.499 20.7357 100.46 20.7357C98.4205 20.7357 96.7209 20.0207 95.3613 18.5596C94.0016 17.0984 93.3218 15.3264 93.3218 13.2124C93.3218 11.0984 94.0016 9.32642 95.3613 7.86528C96.7209 6.40415 98.4205 5.68912 100.46 5.68912C102.067 5.68912 103.334 6.24871 104.292 7.33679V0.0310974H108V20.5492ZM100.8 17.0984C101.82 17.0984 102.716 16.7565 103.488 16.0104C104.23 15.2953 104.601 14.3627 104.601 13.1813C104.601 12.0311 104.23 11.0984 103.488 10.3523C102.747 9.60622 101.851 9.26425 100.862 9.26425C99.842 9.26425 98.9767 9.63731 98.2351 10.3523C97.4935 11.0984 97.1226 12.0311 97.1226 13.1813C97.1226 14.456 97.5862 15.4819 98.4823 16.228C99.1003 16.7876 99.9347 17.0984 100.8 17.0984Z" fill="white"/>
<path d="M14.6781 13.2124C14.6781 11.5337 15.1107 10.0414 15.9451 8.79792V0H11.9279V8.30051H4.01717V0H0V20.5181H4.01717V12.0933H11.9279V20.5181H15.9451V17.5648C15.1107 16.3523 14.6781 14.8912 14.6781 13.2124Z" fill="white"/>
<path d="M31.4575 20.5492V0.0310974H35.1966V20.5492H31.4575Z" fill="white"/>
<path d="M69.4351 18.2798C67.9827 16.8187 67.272 15.0466 67.272 12.9637C67.272 11.0985 67.8591 9.48188 69.0334 8.11401C68.9716 8.05183 68.9098 7.95856 68.8171 7.89639C67.3647 6.43525 65.6033 5.68913 63.502 5.68913C61.4316 5.68913 59.6703 6.43525 58.2179 7.89639C56.7656 9.35753 56.0239 11.1296 56.0239 13.2435C56.0239 15.3264 56.7346 17.0985 58.187 18.5596C59.6394 20.0207 61.4008 20.7668 63.4711 20.7668C64.46 20.7668 65.3561 20.6114 66.1904 20.2694C65.7269 22.57 65.387 23.0363 64.5218 24.3109C66.3758 24.0622 68.6935 23.5337 70.1149 20.6736C70.3003 20.3316 70.4239 19.8342 70.5475 19.3057C70.2076 18.9948 69.8059 18.6529 69.4351 18.2798ZM66.1596 16.0104C65.387 16.7565 64.4909 17.0985 63.4711 17.0985C62.6368 17.0985 61.8025 16.7876 61.1226 16.2591C60.1956 15.513 59.763 14.4871 59.763 13.2124C59.763 12.0622 60.1338 11.1295 60.8754 10.3834C61.6171 9.63732 62.5132 9.29535 63.502 9.29535C64.5218 9.29535 65.387 9.66841 66.1286 10.3834C66.8703 11.1295 67.2411 12.0622 67.2411 13.2124C67.272 14.3627 66.9012 15.2954 66.1596 16.0104Z" fill="#FA2B65"/>
<path d="M69.4351 18.2798C67.9827 16.8187 67.272 15.0466 67.272 12.9637C67.272 11.0985 67.8591 9.48188 69.0334 8.11401C68.9716 8.05183 68.9098 7.95856 68.8171 7.89639C67.3647 6.43525 65.6033 5.68913 63.502 5.68913C61.4316 5.68913 59.6703 6.43525 58.2179 7.89639C56.7656 9.35753 56.0239 11.1296 56.0239 13.2435C56.0239 15.3264 56.7346 17.0985 58.187 18.5596C59.6394 20.0207 61.4008 20.7668 63.4711 20.7668C64.46 20.7668 65.3561 20.6114 66.1904 20.2694C65.7269 22.57 65.387 23.0363 64.5218 24.3109C66.3758 24.0622 68.6935 23.5337 70.1149 20.6736C70.3003 20.3316 70.4239 19.8342 70.5475 19.3057C70.2076 18.9948 69.8059 18.6529 69.4351 18.2798ZM66.1596 16.0104C65.387 16.7565 64.4909 17.0985 63.4711 17.0985C62.6368 17.0985 61.8025 16.7876 61.1226 16.2591C60.1956 15.513 59.763 14.4871 59.763 13.2124C59.763 12.0622 60.1338 11.1295 60.8754 10.3834C61.6171 9.63732 62.5132 9.29535 63.502 9.29535C64.5218 9.29535 65.387 9.66841 66.1286 10.3834C66.8703 11.1295 67.2411 12.0622 67.2411 13.2124C67.272 14.3627 66.9012 15.2954 66.1596 16.0104Z" fill="#FA2B65"/>
<path d="M71.011 33.171V30.5596C71.011 29.7202 70.4547 29.1295 69.6204 29.1295C68.7861 29.1295 68.2298 29.7513 68.2298 30.5907V33.2021H67.7972V30.5907C67.7972 29.7513 67.2101 29.1295 66.4067 29.1295C65.5723 29.1295 65.0161 29.7513 65.0161 30.5907V33.2021H64.5835V28.8186H64.9852V29.5337C65.2942 28.943 65.8505 28.7254 66.4067 28.7254C67.0556 28.7254 67.7663 29.0363 68.0135 29.8135C68.2917 29.0984 68.9715 28.7254 69.6204 28.7254C70.671 28.7254 71.4436 29.4715 71.4436 30.5596V33.171H71.011Z" fill="white"/>
<path d="M77.2843 28.7876C77.2843 30.2487 77.2843 31.7098 77.2843 33.171H76.8516V32.2383C76.419 32.9223 75.7701 33.2332 75.0594 33.2332C73.8542 33.2332 72.8345 32.3005 72.8345 30.9637C72.8345 29.6269 73.8233 28.7254 75.0594 28.7254C75.7701 28.7254 76.4808 29.0674 76.8516 29.7202V28.7565H77.2843V28.7876ZM73.298 30.9637C73.298 32.0518 74.1014 32.7979 75.0903 32.7979C77.5006 32.7979 77.5006 29.1295 75.0903 29.1295C74.1014 29.1606 73.298 29.8756 73.298 30.9637Z" fill="white"/>
<path d="M79.2927 28.7876L79.3236 29.5648C79.6017 28.9741 80.2197 28.7254 80.776 28.7254C81.1159 28.7254 81.4249 28.8186 81.703 28.9741L81.5176 29.3161C81.3013 29.1606 81.0232 29.0984 80.776 29.0984C79.9725 29.0984 79.3545 29.7513 79.3545 30.5596V33.1088H78.9219V28.7254H79.2927V28.7876Z" fill="white"/>
<path d="M83.2173 26.9534V30.6839L85.2568 28.7565H85.8439V28.7876L83.6499 30.8394L86.122 33.1399V33.171H85.5658L83.2173 31.0259V33.171H82.7847V26.9534H83.2173Z" fill="white"/>
<path d="M86.8325 30.9637C86.8325 29.658 87.8214 28.6943 89.0574 28.6943C90.2935 28.6943 91.375 29.4404 91.2205 31.1503H87.296C87.3887 32.1762 88.1613 32.7668 89.0574 32.7668C89.6445 32.7668 90.2935 32.5492 90.6334 32.114L90.9424 32.3627C90.5098 32.9223 89.7681 33.2021 89.0574 33.2021C87.8214 33.2332 86.8325 32.3627 86.8325 30.9637ZM90.8188 30.8083C90.8188 29.7202 90.1081 29.1295 89.0574 29.1295C88.1613 29.1295 87.3887 29.7513 87.296 30.8083H90.8188Z" fill="white"/>
<path d="M93.5691 27.4508V28.7565H95.0524V29.1295H93.5691V31.8031C93.5691 32.3938 93.6927 32.7979 94.3726 32.7979C94.5889 32.7979 94.8361 32.7357 95.0524 32.6114L95.2069 32.9533C94.9288 33.0777 94.6507 33.171 94.3726 33.171C93.4455 33.171 93.1365 32.6114 93.1365 31.772V29.0984H92.2095V28.7254H93.1365V27.4508H93.5691Z" fill="white"/>
<path d="M97.0608 27.3575C97.0608 27.8238 96.3501 27.8238 96.3501 27.3575C96.381 26.8912 97.0608 26.8912 97.0608 27.3575ZM96.5046 28.7565V33.1399H96.9372V28.7565H96.5046Z" fill="white"/>
<path d="M99.0077 28.7876V29.5648C99.3476 28.9741 99.9656 28.7254 100.553 28.6943C101.727 28.6943 102.53 29.4093 102.53 30.6218V33.1399H102.098V30.6218C102.098 29.6269 101.48 29.0984 100.553 29.0984C99.6566 29.0984 99.0386 29.7824 99.0386 30.6839V33.1088H98.606V28.7254H99.0077V28.7876Z" fill="white"/>
<path d="M107.598 28.601L107.876 28.8497L107.444 29.3471C107.753 29.6891 107.969 30.1243 107.969 30.8394C107.969 31.6166 107.505 32.3627 106.795 32.7047C107.567 32.9844 107.969 33.5129 107.969 34.2591C107.969 35.4404 107.042 36 105.899 36C104.755 36 103.828 35.3471 103.828 34.2591H104.261C104.261 35.1606 105.033 35.5648 105.899 35.5648C106.764 35.5648 107.536 35.1606 107.536 34.2591C107.536 33.3264 106.702 32.9534 105.899 32.9534C104.632 32.9534 103.859 31.9896 103.859 30.8394C103.859 29.4715 104.786 28.6943 105.899 28.6943C106.331 28.6943 106.795 28.8497 107.135 29.0984L107.598 28.601ZM104.323 30.8394C104.323 31.7409 104.941 32.5181 105.929 32.5181C106.826 32.5181 107.567 31.7409 107.567 30.8394C107.567 29.7202 106.826 29.1295 105.929 29.1295C105.064 29.1295 104.323 29.6891 104.323 30.8394Z" fill="white"/>
<path d="M79.7253 12.9637C79.7253 11.9378 79.9416 11.0363 80.3434 10.1969C80.0343 9.60621 79.6635 9.04663 79.1691 8.54922C77.964 7.3057 76.4807 6.71503 74.7502 6.71503C73.0507 6.71503 71.5674 7.33679 70.3622 8.54922C69.1571 9.76166 68.5391 11.2539 68.5391 12.9948C68.5391 14.7047 69.1262 16.1969 70.3314 17.4093C71.5365 18.6218 72.9888 19.2435 74.7193 19.2435C76.7279 19.2435 78.3966 18.4041 79.7253 16.7565C79.9725 16.4456 80.158 16.1347 80.3434 15.7927C79.9416 14.9223 79.7253 13.9896 79.7253 12.9637ZM76.9442 15.3264C76.3262 15.9482 75.5537 16.228 74.7193 16.228C74.0086 16.228 73.3288 15.9793 72.7725 15.5129C72 14.8912 71.6292 14.0518 71.6292 12.9637C71.6292 12 71.9382 11.2228 72.5562 10.601C73.1743 9.97927 73.9159 9.69947 74.7502 9.69947C75.5846 9.69947 76.3262 10.0104 76.9442 10.601C77.5622 11.2228 77.8713 12 77.8713 12.9637C77.8713 13.9275 77.5622 14.7047 76.9442 15.3264Z" fill="white"/>
<path d="M92.1784 13.2124C92.1784 12.0933 92.3639 11.0674 92.7656 10.1347C92.4875 9.57513 92.0857 9.04663 91.6222 8.54922C90.4171 7.3057 88.9338 6.71503 87.2033 6.71503C85.5038 6.71503 84.0205 7.33679 82.8154 8.54922C81.6102 9.76166 80.9922 11.2539 80.9922 12.9948C80.9922 14.7047 81.5793 16.1969 82.7845 17.4093C83.9896 18.6218 85.442 19.2435 87.1724 19.2435C89.181 19.2435 90.8497 18.4041 92.1784 16.7565C92.3638 16.5389 92.4875 16.3212 92.642 16.0725C92.3329 15.171 92.1784 14.2383 92.1784 13.2124ZM89.3973 15.3264C88.7793 15.9482 88.0068 16.228 87.1724 16.228C86.4617 16.228 85.7819 15.9793 85.2256 15.5129C84.4531 14.8912 84.0823 14.0518 84.0823 12.9637C84.0823 12 84.3913 11.2228 85.0094 10.601C85.6274 9.97927 86.369 9.69947 87.2033 9.69947C88.0377 9.69947 88.7793 10.0104 89.3973 10.601C90.0153 11.2228 90.3244 12 90.3244 12.9637C90.3244 13.9275 90.0153 14.7047 89.3973 15.3264Z" fill="white"/>
<path d="M38.9047 13.2124C38.9047 11.5648 39.3373 10.1036 40.1717 8.86011V0.0310974H36.4326V20.5492H40.1717V17.5648C39.3373 16.3212 38.9047 14.8601 38.9047 13.2124Z" fill="white"/>
</svg>
